# xmcd
# 
# Track frame offsets:
#     150
#     15072
#     27944
#     41885
#     54394
#     75737
#     97391
#     118326
#     130633
#     143521
#     164082
#     173887
# 
# Disc length: 2590
# 
# Revision: 4
# Processed by: cddbd v1.5.2PL0 Copyright (c) Steve Scherf et al.
# Submitted via: fre:ac v1.0.27
# 
DISCID=9d0a1c0c
DTITLE=Tift Merritt - See You on the Moon
DYEAR=2010
DGENRE=Country-influenced Rock
TTITLE0=Mixtape
TTITLE1=Engine to Turn
TTITLE2=The Things That Everybody Does
TTITLE3=Six More Days of Rain
TTITLE4=Feel of the World
TTITLE5=Neer Talk About It
TTITLE6=All the Reasons We Don't Have to Fight
TTITLE7=Live Till You Die
TTITLE8=Papercut
TTITLE9=See You on the Moon
TTITLE10=Danny's Song
TTITLE11=After Today
EXTD=
EXTT0=
EXTT1=
EXTT2=
EXTT3=
EXTT4=
EXTT5=
EXTT6=
EXTT7=
EXTT8=
EXTT9=
EXTT10=
EXTT11=
PLAYORDER=
